G04*
G04 #@! TF.GenerationSoftware,Altium Limited,Altium Designer,23.1.1 (15)*
G04*
G04 Layer_Color=8388736*
%FSTAX43Y43*%
%MOMM*%
G71*
G04*
G04 #@! TF.SameCoordinates,20754564-5895-47B1-9861-3486508C147A*
G04*
G04*
G04 #@! TF.FilePolarity,Positive*
G04*
G01*
G75*
%ADD10C,0.200*%
%ADD13C,0.127*%
%ADD17C,0.100*%
D10*
X004775Y007425D02*
G03*
X004775Y007425I-00001J0D01*
G01*
X003445D02*
G03*
X003445Y007425I-00001J0D01*
G01*
X004785Y001245D02*
G03*
X004785Y001245I-00001J0D01*
G01*
X0038675Y00043D02*
G03*
X0038675Y00043I-00001J0D01*
G01*
D13*
X006872Y005892D02*
Y005988D01*
X007048Y005892D02*
Y005988D01*
X006872Y005892D02*
X007048D01*
X006872Y005988D02*
X007048D01*
X0070799Y0082018D02*
X0071755Y0081935D01*
X0070645Y0080265D02*
X0071601Y0080182D01*
X0070645Y0080265D02*
X0070799Y0082018D01*
X0071601Y0080182D02*
X0071755Y0081935D01*
X0052838Y0089583D02*
X0053517Y0090262D01*
X0054083Y0088338D02*
X0054762Y0089017D01*
X0052838Y0089583D02*
X0054083Y0088338D01*
X0053517Y0090262D02*
X0054762Y0089017D01*
X0027683Y0089362D02*
X0028362Y0088683D01*
X0026438Y0088117D02*
X0027117Y0087438D01*
X0026438Y0088117D02*
X0027683Y0089362D01*
X0027117Y0087438D02*
X0028362Y0088683D01*
X0066945Y0080665D02*
X0067901Y0080581D01*
X0067099Y0082418D02*
X0068055Y0082335D01*
X0067901Y0080581D02*
X0068055Y0082335D01*
X0066945Y0080665D02*
X0067099Y0082418D01*
X0056717Y0091004D02*
X0057396Y0091683D01*
X0055473Y0092249D02*
X0056151Y0092927D01*
X0057396Y0091683D01*
X0055473Y0092249D02*
X0056717Y0091004D01*
X0023938Y0090517D02*
X0024617Y0089838D01*
X0025183Y0091762D02*
X0025862Y0091083D01*
X0024617Y0089838D02*
X0025862Y0091083D01*
X0023938Y0090517D02*
X0025183Y0091762D01*
X004522Y007172D02*
X004618D01*
X004522Y007348D02*
X004618D01*
Y007172D02*
Y007348D01*
X004522Y007172D02*
Y007348D01*
X003192Y007172D02*
X003288D01*
X003192Y007348D02*
X003288D01*
Y007172D02*
Y007348D01*
X003192Y007172D02*
Y007348D01*
X004882Y000842D02*
Y001018D01*
X004978Y000842D02*
Y001018D01*
X004882D02*
X004978D01*
X004882Y000842D02*
X004978D01*
X004722Y007348D02*
X004818D01*
X004722Y007172D02*
X004818D01*
X004722D02*
Y007348D01*
X004818Y007172D02*
Y007348D01*
X003382D02*
X003478D01*
X003382Y007172D02*
X003478D01*
X003382D02*
Y007348D01*
X003478Y007172D02*
Y007348D01*
X004882Y001182D02*
Y001358D01*
X004978Y001182D02*
Y001358D01*
X004882D02*
X004978D01*
X004882Y001182D02*
X004978D01*
X004238Y001132D02*
Y001308D01*
X004142Y001132D02*
Y001308D01*
Y001132D02*
X004238D01*
X004142Y001308D02*
X004238D01*
X0010735Y0082755D02*
X0010818Y0081799D01*
X0008981Y0082601D02*
X0009065Y0081645D01*
X0008981Y0082601D02*
X0010735Y0082755D01*
X0009065Y0081645D02*
X0010818Y0081799D01*
X0008899Y0078382D02*
X0009855Y0078465D01*
X0008745Y0080135D02*
X0009701Y0080218D01*
X0009855Y0078465D01*
X0008745Y0080135D02*
X0008899Y0078382D01*
X0063899Y0074919D02*
X0064855Y0074835D01*
X0063745Y0073165D02*
X0064701Y0073082D01*
X0063745Y0073165D02*
X0063899Y0074919D01*
X0064701Y0073082D02*
X0064855Y0074835D01*
X004402Y008062D02*
X004498D01*
X004402Y008238D02*
X004498Y008238D01*
Y008062D02*
Y008238D01*
X004402Y008062D02*
X004402Y008238D01*
X002862Y007902D02*
X002958Y007902D01*
X002862Y008078D02*
X002958D01*
X002958Y007902D02*
X002958Y008078D01*
X002862Y007902D02*
Y008078D01*
X0006082Y0072102D02*
X0006165Y0071145D01*
X0007835Y0072255D02*
X0007918Y0071299D01*
X0006165Y0071145D02*
X0007918Y0071299D01*
X0006082Y0072102D02*
X0007835Y0072255D01*
X006872Y006758D02*
X007048D01*
X006872Y006662D02*
X007048D01*
Y006758D01*
X006872Y006662D02*
Y006758D01*
Y006488D02*
X007048D01*
X006872Y006392D02*
X007048D01*
Y006488D01*
X006872Y006392D02*
Y006488D01*
Y006238D02*
X007048D01*
X006872Y006142D02*
X007048D01*
Y006238D01*
X006872Y006142D02*
Y006238D01*
X004525Y007595D02*
X004815D01*
Y007725D01*
X004525D02*
X004815D01*
X004525Y007595D02*
Y007725D01*
X003195Y007595D02*
X003485D01*
Y007725D01*
X003195D02*
X003485D01*
X003195Y007595D02*
Y007725D01*
X004475Y001005D02*
X004605D01*
X004475D02*
Y001295D01*
X004605D01*
Y001005D02*
Y001295D01*
X004043Y00035D02*
X004313D01*
Y00051D01*
X004043D02*
X004313D01*
X004043Y00035D02*
Y00051D01*
D17*
X0068851Y008047D02*
X0069003Y0082213D01*
X0069797Y0080387D02*
X0069949Y008213D01*
X0069003Y0082213D02*
X0069949Y008213D01*
X0068851Y008047D02*
X0069797Y0080387D01*
X0054145Y0090883D02*
X0055383Y0089645D01*
X0054817Y0091555D02*
X0056055Y0090317D01*
X0054145Y0090883D02*
X0054817Y0091555D01*
X0055383Y0089645D02*
X0056055Y0090317D01*
X0025145Y0089417D02*
X0026383Y0090655D01*
X0025817Y0088745D02*
X0027055Y0089983D01*
X0026383Y0090655D02*
X0027055Y0089983D01*
X0025145Y0089417D02*
X0025817Y0088745D01*
X0010703Y0078287D02*
X0011649Y007837D01*
X0010551Y008003D02*
X0011497Y0080113D01*
X0011649Y007837D01*
X0010551Y008003D02*
X0010703Y0078287D01*
X0075225Y0060775D02*
X0076175D01*
X0075225Y0059025D02*
X0076175D01*
X0075225D02*
Y0060775D01*
X0076175Y0059025D02*
Y0060775D01*
M02*
