G04*
G04 #@! TF.GenerationSoftware,Altium Limited,Altium Designer,23.1.1 (15)*
G04*
G04 Layer_Color=16711935*
%FSTAX43Y43*%
%MOMM*%
G71*
G04*
G04 #@! TF.SameCoordinates,20754564-5895-47B1-9861-3486508C147A*
G04*
G04*
G04 #@! TF.FilePolarity,Positive*
G04*
G01*
G75*
%ADD10C,0.200*%
%ADD11C,0.254*%
%ADD13C,0.127*%
%ADD17C,0.100*%
G36*
X0076753Y0010942D02*
X0076397D01*
Y0012237D01*
X0076753D01*
Y0010942D01*
D02*
G37*
G36*
X0076103D02*
X0075747D01*
Y0012237D01*
X0076103D01*
Y0010942D01*
D02*
G37*
G36*
X0075453D02*
X0075097D01*
Y0012237D01*
X0075453D01*
Y0010942D01*
D02*
G37*
G36*
X0074803D02*
X0074447D01*
Y0012237D01*
X0074803D01*
Y0010942D01*
D02*
G37*
G36*
X0074153D02*
X0073797D01*
Y0012237D01*
X0074153D01*
Y0010942D01*
D02*
G37*
G36*
X0073503D02*
X0073147D01*
Y0012237D01*
X0073503D01*
Y0010942D01*
D02*
G37*
G36*
X0072853D02*
X0072497D01*
Y0012237D01*
X0072853D01*
Y0010942D01*
D02*
G37*
G36*
X0072203D02*
X0071847D01*
Y0012237D01*
X0072203D01*
Y0010942D01*
D02*
G37*
G36*
X0071553D02*
X0071197D01*
Y0012237D01*
X0071553D01*
Y0010942D01*
D02*
G37*
G36*
X0070903D02*
X0070547D01*
Y0012237D01*
X0070903D01*
Y0010942D01*
D02*
G37*
G36*
X0070253D02*
X0069897D01*
Y0012237D01*
X0070253D01*
Y0010942D01*
D02*
G37*
G36*
X0069603D02*
X0069247D01*
Y0012237D01*
X0069603D01*
Y0010942D01*
D02*
G37*
G36*
X0027Y00084D02*
X00265D01*
Y0009D01*
X0027D01*
Y00084D01*
D02*
G37*
G36*
X002605D02*
X002555D01*
Y0009D01*
X002605D01*
Y00084D01*
D02*
G37*
G36*
X00251D02*
X00246D01*
Y0009D01*
X00251D01*
Y00084D01*
D02*
G37*
G36*
X0027Y00062D02*
X00265D01*
Y00068D01*
X0027D01*
Y00062D01*
D02*
G37*
G36*
X002605D02*
X002555D01*
Y00068D01*
X002605D01*
Y00062D01*
D02*
G37*
G36*
X00251D02*
X00246D01*
Y00068D01*
X00251D01*
Y00062D01*
D02*
G37*
G36*
X0076753Y0004363D02*
X0076397D01*
Y0005658D01*
X0076753D01*
Y0004363D01*
D02*
G37*
G36*
X0076103D02*
X0075747D01*
Y0005658D01*
X0076103D01*
Y0004363D01*
D02*
G37*
G36*
X0075453D02*
X0075097D01*
Y0005658D01*
X0075453D01*
Y0004363D01*
D02*
G37*
G36*
X0074803D02*
X0074447D01*
Y0005658D01*
X0074803D01*
Y0004363D01*
D02*
G37*
G36*
X0074153D02*
X0073797D01*
Y0005658D01*
X0074153D01*
Y0004363D01*
D02*
G37*
G36*
X0073503D02*
X0073147D01*
Y0005658D01*
X0073503D01*
Y0004363D01*
D02*
G37*
G36*
X0072853D02*
X0072497D01*
Y0005658D01*
X0072853D01*
Y0004363D01*
D02*
G37*
G36*
X0072203D02*
X0071847D01*
Y0005658D01*
X0072203D01*
Y0004363D01*
D02*
G37*
G36*
X0071553D02*
X0071197D01*
Y0005658D01*
X0071553D01*
Y0004363D01*
D02*
G37*
G36*
X0070903D02*
X0070547D01*
Y0005658D01*
X0070903D01*
Y0004363D01*
D02*
G37*
G36*
X0070253D02*
X0069897D01*
Y0005658D01*
X0070253D01*
Y0004363D01*
D02*
G37*
G36*
X0069603D02*
X0069247D01*
Y0005658D01*
X0069603D01*
Y0004363D01*
D02*
G37*
D10*
X00235Y0083D02*
G03*
X00235Y0083I-00001J0D01*
G01*
X00609Y00822D02*
G03*
X00609Y00822I-00001J0D01*
G01*
X0073165Y00594D02*
G03*
X0073165Y00594I-00001J0D01*
G01*
X0073165Y00671D02*
G03*
X0073165Y00671I-00001J0D01*
G01*
Y00644D02*
G03*
X0073165Y00644I-00001J0D01*
G01*
Y00619D02*
G03*
X0073165Y00619I-00001J0D01*
G01*
X0028235Y00165D02*
G03*
X0028235Y00165I-00001J0D01*
G01*
X00644Y00095D02*
G03*
X00644Y00095I-00001J0D01*
G01*
X003708Y0012455D02*
G03*
X003708Y0012455I-00001J0D01*
G01*
X00552Y000335D02*
G03*
X00552Y000335I-00001J0D01*
G01*
D11*
X007425Y006085D02*
Y006475D01*
X007715D01*
Y006085D02*
Y006475D01*
X007425Y006085D02*
X007715D01*
X007425D02*
Y006475D01*
X007715Y006085D02*
Y006475D01*
D13*
X002405Y008235D02*
X002555Y008085D01*
Y007405D02*
Y008085D01*
X001725Y007405D02*
X002555D01*
X001725D02*
Y008085D01*
X001875Y008235D01*
X002405D01*
X005615Y008155D02*
X006145D01*
X005465Y008005D02*
X005615Y008155D01*
X005465Y007325D02*
Y008005D01*
Y007325D02*
X006295D01*
Y008005D01*
X006145Y008155D02*
X006295Y008005D01*
X00705Y0059D02*
Y00598D01*
X00721D01*
Y0059D02*
Y00598D01*
X00705Y0059D02*
X00721D01*
X00705Y00667D02*
Y00675D01*
X00721D01*
Y00667D02*
Y00675D01*
X00705Y00667D02*
X00721D01*
X00705Y0064D02*
Y00648D01*
X00721D01*
Y0064D02*
Y00648D01*
X00705Y0064D02*
X00721D01*
X00705Y00615D02*
Y00623D01*
X00721D01*
Y00615D02*
Y00623D01*
X00705Y00615D02*
X00721D01*
X003458Y001602D02*
Y001698D01*
X003282Y001602D02*
Y001698D01*
Y001602D02*
X003458D01*
X003282Y001698D02*
X003458D01*
X00291Y00169D02*
X00307D01*
X00291Y00161D02*
Y00169D01*
Y00161D02*
X00307D01*
Y00169D01*
X00629Y000845D02*
X00657D01*
X00629Y000495D02*
X00657D01*
Y000845D01*
X00629Y000495D02*
Y000845D01*
X0031437Y0009208D02*
X0037942D01*
X0031437Y0005702D02*
Y0009208D01*
Y0005702D02*
X0037942D01*
Y0009208D01*
X002732Y001422D02*
X002908D01*
X002732Y001518D02*
X002908D01*
Y001422D02*
Y001518D01*
X002732Y001422D02*
Y001518D01*
X002572Y001212D02*
X002748D01*
X002572Y001308D02*
X002748D01*
Y001212D02*
Y001308D01*
X002572Y001212D02*
Y001308D01*
X002928Y000512D02*
Y000688D01*
X002832Y000512D02*
Y000688D01*
X002928D01*
X002832Y000512D02*
X002928D01*
Y000862D02*
Y001038D01*
X002832Y000862D02*
Y001038D01*
X002928D01*
X002832Y000862D02*
X002928D01*
X002562Y000372D02*
X002738D01*
X002562Y000468D02*
X002738D01*
Y000372D02*
Y000468D01*
X002562Y000372D02*
Y000468D01*
X002212Y000372D02*
X002388D01*
X002212Y000468D02*
X002388D01*
Y000372D02*
Y000468D01*
X002212Y000372D02*
Y000468D01*
X00207Y00127D02*
Y00187D01*
X00147D02*
X00207D01*
X00147Y00127D02*
Y00187D01*
Y00127D02*
X00207D01*
X005445Y0004D02*
X005975D01*
X006125Y00055D01*
Y00123D01*
X005295D02*
X006125D01*
X005295Y00055D02*
Y00123D01*
Y00055D02*
X005445Y0004D01*
D17*
X0026325Y0076625D02*
X0027275D01*
X0026325Y0078375D02*
X0027275D01*
X0026325Y0076625D02*
Y0078375D01*
X0027275Y0076625D02*
Y0078375D01*
X0052635Y0075088D02*
X0053585D01*
X0052635Y0076838D02*
X0053585D01*
X0052635Y0075088D02*
Y0076838D01*
X0053585Y0075088D02*
Y0076838D01*
X0016525Y0071875D02*
X0018275D01*
X0016525Y0070925D02*
X0018275D01*
X0016525D02*
Y0071875D01*
X0018275Y0070925D02*
Y0071875D01*
X0059525Y0049225D02*
Y0050175D01*
X0061275Y0049225D02*
Y0050175D01*
X0059525D02*
X0061275D01*
X0059525Y0049225D02*
X0061275D01*
X0054125Y0020175D02*
X0055875D01*
X0054125Y0019225D02*
X0055875D01*
X0054125D02*
Y0020175D01*
X0055875Y0019225D02*
Y0020175D01*
X0049125Y0048175D02*
X0050875D01*
X0049125Y0047225D02*
X0050875D01*
X0049125D02*
Y0048175D01*
X0050875Y0047225D02*
Y0048175D01*
X0054125Y0018675D02*
X0055875D01*
X0054125Y0017725D02*
X0055875D01*
X0054125D02*
Y0018675D01*
X0055875Y0017725D02*
Y0018675D01*
X0067775Y0004925D02*
Y0006675D01*
X0066825Y0004925D02*
Y0006675D01*
X0067775D01*
X0066825Y0004925D02*
X0067775D01*
X0023825Y0019125D02*
X0025575D01*
X0023825Y0020075D02*
X0025575D01*
Y0019125D02*
Y0020075D01*
X0023825Y0019125D02*
Y0020075D01*
X0037875Y0014025D02*
Y0014975D01*
X0036125Y0014025D02*
Y0014975D01*
Y0014025D02*
X0037875D01*
X0036125Y0014975D02*
X0037875D01*
Y0012425D02*
Y0013375D01*
X0036125Y0012425D02*
Y0013375D01*
Y0012425D02*
X0037875D01*
X0036125Y0013375D02*
X0037875D01*
X0033975Y0012425D02*
Y0013375D01*
X0032225Y0012425D02*
Y0013375D01*
Y0012425D02*
X0033975D01*
X0032225Y0013375D02*
X0033975D01*
X0066725Y0010875D02*
X0067675D01*
X0066725Y0009125D02*
X0067675D01*
Y0010875D01*
X0066725Y0009125D02*
Y0010875D01*
X0021925Y0006225D02*
X0022875D01*
X0021925Y0007975D02*
X0022875D01*
X0021925Y0006225D02*
Y0007975D01*
X0022875Y0006225D02*
Y0007975D01*
X0024225Y0009825D02*
Y0010775D01*
X0025975Y0009825D02*
Y0010775D01*
X0024225D02*
X0025975D01*
X0024225Y0009825D02*
X0025975D01*
X0020125D02*
Y0010775D01*
X0021875Y0009825D02*
Y0010775D01*
X0020125D02*
X0021875D01*
X0020125Y0009825D02*
X0021875D01*
X0023825Y0017625D02*
Y0018575D01*
X0025575Y0017625D02*
Y0018575D01*
X0023825D02*
X0025575D01*
X0023825Y0017625D02*
X0025575D01*
X0062825Y0010225D02*
Y0011175D01*
X0064575Y0010225D02*
Y0011175D01*
X0062825D02*
X0064575D01*
X0062825Y0010225D02*
X0064575D01*
M02*
