G04*
G04 #@! TF.GenerationSoftware,Altium Limited,Altium Designer,23.1.1 (15)*
G04*
G04 Layer_Color=255*
%FSTAX43Y43*%
%MOMM*%
G71*
G04*
G04 #@! TF.SameCoordinates,20754564-5895-47B1-9861-3486508C147A*
G04*
G04*
G04 #@! TF.FilePolarity,Positive*
G04*
G01*
G75*
G04:AMPARAMS|DCode=19|XSize=0.76mm|YSize=0.66mm|CornerRadius=0.083mm|HoleSize=0mm|Usage=FLASHONLY|Rotation=180.000|XOffset=0mm|YOffset=0mm|HoleType=Round|Shape=RoundedRectangle|*
%AMROUNDEDRECTD19*
21,1,0.760,0.495,0,0,180.0*
21,1,0.595,0.660,0,0,180.0*
1,1,0.165,-0.297,0.248*
1,1,0.165,0.297,0.248*
1,1,0.165,0.297,-0.248*
1,1,0.165,-0.297,-0.248*
%
%ADD19ROUNDEDRECTD19*%
%ADD20R,2.000X4.000*%
%ADD21R,0.800X0.800*%
%ADD22R,2.000X0.800*%
%ADD23R,0.870X0.980*%
%ADD24R,0.400X1.250*%
G04:AMPARAMS|DCode=25|XSize=0.76mm|YSize=0.66mm|CornerRadius=0.083mm|HoleSize=0mm|Usage=FLASHONLY|Rotation=270.000|XOffset=0mm|YOffset=0mm|HoleType=Round|Shape=RoundedRectangle|*
%AMROUNDEDRECTD25*
21,1,0.760,0.495,0,0,270.0*
21,1,0.595,0.660,0,0,270.0*
1,1,0.165,-0.248,-0.297*
1,1,0.165,-0.248,0.297*
1,1,0.165,0.248,0.297*
1,1,0.165,0.248,-0.297*
%
%ADD25ROUNDEDRECTD25*%
%ADD26R,2.700X1.600*%
G04:AMPARAMS|DCode=27|XSize=1.31mm|YSize=3.24mm|CornerRadius=0.098mm|HoleSize=0mm|Usage=FLASHONLY|Rotation=270.000|XOffset=0mm|YOffset=0mm|HoleType=Round|Shape=RoundedRectangle|*
%AMROUNDEDRECTD27*
21,1,1.310,3.044,0,0,270.0*
21,1,1.114,3.240,0,0,270.0*
1,1,0.197,-1.522,-0.557*
1,1,0.197,-1.522,0.557*
1,1,0.197,1.522,0.557*
1,1,0.197,1.522,-0.557*
%
%ADD27ROUNDEDRECTD27*%
G04:AMPARAMS|DCode=28|XSize=1.31mm|YSize=0.93mm|CornerRadius=0.07mm|HoleSize=0mm|Usage=FLASHONLY|Rotation=270.000|XOffset=0mm|YOffset=0mm|HoleType=Round|Shape=RoundedRectangle|*
%AMROUNDEDRECTD28*
21,1,1.310,0.791,0,0,270.0*
21,1,1.171,0.930,0,0,270.0*
1,1,0.140,-0.395,-0.585*
1,1,0.140,-0.395,0.585*
1,1,0.140,0.395,0.585*
1,1,0.140,0.395,-0.585*
%
%ADD28ROUNDEDRECTD28*%
%ADD29R,0.600X1.000*%
%ADD30R,0.980X0.870*%
%ADD31R,1.600X5.700*%
%ADD32R,3.150X2.300*%
%ADD68R,1.200X2.500*%
%ADD69O,1.200X2.500*%
G04:AMPARAMS|DCode=70|XSize=1.524mm|YSize=2.184mm|CornerRadius=0mm|HoleSize=0mm|Usage=FLASHONLY|Rotation=355.000|XOffset=0mm|YOffset=0mm|HoleType=Round|Shape=Round|*
%AMOVALD70*
21,1,0.660,1.524,0.000,0.000,85.0*
1,1,1.524,-0.029,-0.329*
1,1,1.524,0.029,0.329*
%
%ADD70OVALD70*%

G04:AMPARAMS|DCode=71|XSize=1.524mm|YSize=2.184mm|CornerRadius=0mm|HoleSize=0mm|Usage=FLASHONLY|Rotation=315.000|XOffset=0mm|YOffset=0mm|HoleType=Round|Shape=Round|*
%AMOVALD71*
21,1,0.660,1.524,0.000,0.000,45.0*
1,1,1.524,-0.233,-0.233*
1,1,1.524,0.233,0.233*
%
%ADD71OVALD71*%

G04:AMPARAMS|DCode=72|XSize=1.524mm|YSize=2.184mm|CornerRadius=0mm|HoleSize=0mm|Usage=FLASHONLY|Rotation=45.000|XOffset=0mm|YOffset=0mm|HoleType=Round|Shape=Round|*
%AMOVALD72*
21,1,0.660,1.524,0.000,0.000,135.0*
1,1,1.524,0.233,-0.233*
1,1,1.524,-0.233,0.233*
%
%ADD72OVALD72*%

G04:AMPARAMS|DCode=73|XSize=1.524mm|YSize=2.184mm|CornerRadius=0mm|HoleSize=0mm|Usage=FLASHONLY|Rotation=5.000|XOffset=0mm|YOffset=0mm|HoleType=Round|Shape=Round|*
%AMOVALD73*
21,1,0.660,1.524,0.000,0.000,95.0*
1,1,1.524,0.029,-0.329*
1,1,1.524,-0.029,0.329*
%
%ADD73OVALD73*%

%ADD74R,2.500X1.500*%
%ADD75O,2.500X1.500*%
%ADD76R,2.500X1.200*%
%ADD77O,2.500X1.200*%
%ADD78O,1.905X1.651*%
D19*
X00268Y00782D02*
D03*
Y00768D02*
D03*
X005311Y0076663D02*
D03*
Y0075263D02*
D03*
X00673Y00051D02*
D03*
Y00065D02*
D03*
X00672Y00093D02*
D03*
Y00107D02*
D03*
X00224Y00078D02*
D03*
Y00064D02*
D03*
D20*
X00214Y007465D02*
D03*
Y008175D02*
D03*
X00588Y008095D02*
D03*
Y007385D02*
D03*
X00571Y00046D02*
D03*
Y00117D02*
D03*
D21*
X0070475Y00594D02*
D03*
X0072125D02*
D03*
X0070475Y00671D02*
D03*
X0072125D02*
D03*
X0070475Y00644D02*
D03*
X0072125D02*
D03*
X0070475Y00619D02*
D03*
X0072125D02*
D03*
X0029075Y00165D02*
D03*
X0030725D02*
D03*
D22*
X00757Y00607D02*
D03*
Y00649D02*
D03*
D23*
X00329Y00165D02*
D03*
X00345D02*
D03*
X00274Y00147D02*
D03*
X0029D02*
D03*
X00258Y00126D02*
D03*
X00274D02*
D03*
X00257Y00042D02*
D03*
X00273D02*
D03*
X00222D02*
D03*
X00238D02*
D03*
D24*
X0069425Y0004675D02*
D03*
X0070075D02*
D03*
X0070725D02*
D03*
X0071375D02*
D03*
X0072025D02*
D03*
X0072675D02*
D03*
X0073325D02*
D03*
X0073975D02*
D03*
X0074625D02*
D03*
X0075275D02*
D03*
X0075925D02*
D03*
X0076575D02*
D03*
X0075275Y0011925D02*
D03*
X0074625D02*
D03*
X0073975D02*
D03*
X0073325D02*
D03*
X0072675D02*
D03*
X0072025D02*
D03*
X0071375D02*
D03*
X0070725D02*
D03*
X0070075D02*
D03*
X0069425D02*
D03*
X0075925D02*
D03*
X0076575D02*
D03*
D25*
X00181Y00714D02*
D03*
X00167D02*
D03*
X00611Y00497D02*
D03*
X00597D02*
D03*
X00557Y00197D02*
D03*
X00543D02*
D03*
X00507Y00477D02*
D03*
X00493D02*
D03*
X00557Y00182D02*
D03*
X00543D02*
D03*
X0024Y00196D02*
D03*
X00254D02*
D03*
X00363Y00145D02*
D03*
X00377D02*
D03*
X00363Y00129D02*
D03*
X00377D02*
D03*
X00324D02*
D03*
X00338D02*
D03*
X00258Y00103D02*
D03*
X00244D02*
D03*
X00217D02*
D03*
X00203D02*
D03*
X00254Y00181D02*
D03*
X0024D02*
D03*
X00644Y00107D02*
D03*
X0063D02*
D03*
D26*
X00643Y00082D02*
D03*
Y00052D02*
D03*
D27*
X003469Y000411D02*
D03*
D28*
X00324Y00108D02*
D03*
X003469D02*
D03*
X003698D02*
D03*
D29*
X002485Y000875D02*
D03*
X00258D02*
D03*
X002675D02*
D03*
Y000645D02*
D03*
X00258D02*
D03*
X002485D02*
D03*
D30*
X00288Y00052D02*
D03*
Y00068D02*
D03*
Y00087D02*
D03*
Y00103D02*
D03*
D31*
X001535Y00157D02*
D03*
X002005D02*
D03*
D32*
X00109Y000395D02*
D03*
Y001085D02*
D03*
D68*
X00642Y00532D02*
D03*
X001594Y00684D02*
D03*
X005142Y00446D02*
D03*
X005106Y00224D02*
D03*
X000426Y00157D02*
D03*
X002884Y00223D02*
D03*
D69*
X006166Y00532D02*
D03*
X005912D02*
D03*
X005658D02*
D03*
X005404D02*
D03*
X00515D02*
D03*
X004896D02*
D03*
X004642D02*
D03*
X004388D02*
D03*
X004134D02*
D03*
X00388D02*
D03*
X003626D02*
D03*
X003372D02*
D03*
X003118D02*
D03*
X002864D02*
D03*
X00261D02*
D03*
X002356D02*
D03*
X002102D02*
D03*
X001848D02*
D03*
X001594D02*
D03*
X00642Y00684D02*
D03*
X006166D02*
D03*
X005912D02*
D03*
X005658D02*
D03*
X005404D02*
D03*
X00515D02*
D03*
X004896D02*
D03*
X004642D02*
D03*
X004388D02*
D03*
X004134D02*
D03*
X00388D02*
D03*
X003626D02*
D03*
X003372D02*
D03*
X003118D02*
D03*
X002864D02*
D03*
X00261D02*
D03*
X002356D02*
D03*
X002102D02*
D03*
X001848D02*
D03*
X004888Y00446D02*
D03*
X004634D02*
D03*
X00438D02*
D03*
X004126D02*
D03*
X003872D02*
D03*
X003618D02*
D03*
X003364D02*
D03*
X00311D02*
D03*
X002856D02*
D03*
X006122Y00224D02*
D03*
X005868D02*
D03*
X005614D02*
D03*
X00536D02*
D03*
X004852D02*
D03*
X00068Y00157D02*
D03*
X003138Y00223D02*
D03*
X00263D02*
D03*
X002376D02*
D03*
X002122D02*
D03*
X001868D02*
D03*
D70*
X0067248Y0072391D02*
D03*
X0069779Y007217D02*
D03*
X006747Y0074921D02*
D03*
X007Y00747D02*
D03*
D71*
X0046608Y00835D02*
D03*
X0048404Y0081704D02*
D03*
Y0085296D02*
D03*
X00502Y00835D02*
D03*
D72*
X0031696Y0081804D02*
D03*
X0033492Y00836D02*
D03*
X00299Y00836D02*
D03*
X0031696Y0085396D02*
D03*
D73*
X0010221Y007217D02*
D03*
X0012752Y0072391D02*
D03*
X001Y00747D02*
D03*
X001253Y0074921D02*
D03*
D74*
X004568Y0014869D02*
D03*
D75*
Y0007249D02*
D03*
D76*
X00046Y000944D02*
D03*
Y00069D02*
D03*
X00057Y005886D02*
D03*
D77*
X00046Y000436D02*
D03*
X00057Y006648D02*
D03*
Y006394D02*
D03*
Y00614D02*
D03*
D78*
X00168Y000456D02*
D03*
Y0007125D02*
D03*
Y0009615D02*
D03*
M02*
