G04*
G04 #@! TF.GenerationSoftware,Altium Limited,Altium Designer,23.1.1 (15)*
G04*
G04 Layer_Color=32768*
%FSTAX43Y43*%
%MOMM*%
G71*
G04*
G04 #@! TF.SameCoordinates,20754564-5895-47B1-9861-3486508C147A*
G04*
G04*
G04 #@! TF.FilePolarity,Positive*
G04*
G01*
G75*
%ADD106C,0.050*%
D106*
X0026325Y00775D02*
X0027275D01*
X00268Y0077025D02*
Y0077975D01*
X00274Y00763D02*
Y00787D01*
X00262Y00763D02*
Y00787D01*
X00274D01*
X00262Y00763D02*
X00274D01*
X002015Y0084D02*
X002265D01*
X002015Y00826D02*
Y0084D01*
X0018625Y00826D02*
X002015D01*
X0017Y0080975D02*
X0018625Y00826D01*
X0017Y00738D02*
Y0080975D01*
Y00738D02*
X002015D01*
Y00724D02*
Y00738D01*
Y00724D02*
X002265D01*
Y00738D01*
X00258D01*
Y0080975D01*
X0024175Y00826D02*
X00258Y0080975D01*
X002265Y00826D02*
X0024175D01*
X002265D02*
Y0084D01*
X0052635Y0075963D02*
X0053585D01*
X005311Y0075488D02*
Y0076438D01*
X005371Y0074763D02*
Y0077163D01*
X005251Y0074763D02*
Y0077163D01*
X005371D01*
X005251Y0074763D02*
X005371D01*
X006005Y00818D02*
Y00832D01*
Y00818D02*
X0061575D01*
X00632Y0080175D01*
Y0073D02*
Y0080175D01*
X006005Y0073D02*
X00632D01*
X006005Y00716D02*
Y0073D01*
X005755Y00716D02*
X006005D01*
X005755D02*
Y0073D01*
X00544D02*
X005755D01*
X00544D02*
Y0080175D01*
X0056025Y00818D01*
X005755D01*
Y00832D01*
X006005D01*
X0069825Y005875D02*
Y006005D01*
X0072775D01*
Y005875D02*
Y006005D01*
X0069825Y005875D02*
X0072775D01*
X0069825Y006645D02*
Y006775D01*
X0072775D01*
Y006645D02*
Y006775D01*
X0069825Y006645D02*
X0072775D01*
X0069825Y006375D02*
Y006505D01*
X0072775D01*
Y006375D02*
Y006505D01*
X0069825Y006375D02*
X0072775D01*
X0069825Y006125D02*
Y006255D01*
X0072775D01*
Y006125D02*
Y006255D01*
X0069825Y006125D02*
X0072775D01*
X0032215Y001576D02*
Y001724D01*
X0035185Y001576D02*
Y001724D01*
X0032215Y001576D02*
X0035185D01*
X0032215Y001724D02*
X0035185D01*
X0028425Y001715D02*
X0031375D01*
X0028425Y001585D02*
Y001715D01*
Y001585D02*
X0031375D01*
Y001715D01*
X00186Y00708D02*
Y0072D01*
X00162Y00708D02*
Y0072D01*
Y00708D02*
X00186D01*
X00162Y0072D02*
X00186D01*
X0016925Y00714D02*
X0017875D01*
X00174Y0070925D02*
Y0071875D01*
X00604Y0049225D02*
Y0050175D01*
X0059925Y00497D02*
X0060875D01*
X00592Y00491D02*
X00616D01*
X00592Y00503D02*
X00616D01*
Y00491D02*
Y00503D01*
X00592Y00491D02*
Y00503D01*
X00562Y00191D02*
Y00203D01*
X00538Y00191D02*
Y00203D01*
Y00191D02*
X00562D01*
X00538Y00203D02*
X00562D01*
X0054525Y00197D02*
X0055475D01*
X0055Y0019225D02*
Y0020175D01*
X00512Y00471D02*
Y00483D01*
X00488Y00471D02*
Y00483D01*
Y00471D02*
X00512D01*
X00488Y00483D02*
X00512D01*
X0049525Y00477D02*
X0050475D01*
X005Y0047225D02*
Y0048175D01*
X00562Y00176D02*
Y00188D01*
X00538Y00176D02*
Y00188D01*
Y00176D02*
X00562D01*
X00538Y00188D02*
X00562D01*
X0054525Y00182D02*
X0055475D01*
X0055Y0017725D02*
Y0018675D01*
X00667Y00046D02*
X00679D01*
X00667Y0007D02*
X00679D01*
X00667Y00046D02*
Y0007D01*
X00679Y00046D02*
Y0007D01*
X00673Y0005325D02*
Y0006275D01*
X0066825Y00058D02*
X0067775D01*
X00235Y0019D02*
Y00202D01*
X00259Y0019D02*
Y00202D01*
X00235D02*
X00259D01*
X00235Y0019D02*
X00259D01*
X0024225Y00196D02*
X0025175D01*
X00247Y0019125D02*
Y0020075D01*
X006265Y000925D02*
X006595D01*
X006265Y000415D02*
Y000925D01*
Y000415D02*
X006595D01*
Y000925D01*
X0031187Y0003205D02*
X0038193D01*
X0031187D02*
Y0011705D01*
X0038193D01*
Y0003205D02*
Y0011705D01*
X0026715Y001396D02*
X0029685D01*
X0026715Y001544D02*
X0029685D01*
X0026715Y001396D02*
Y001544D01*
X0029685Y001396D02*
Y001544D01*
X0025115Y001186D02*
X0028085D01*
X0025115Y001334D02*
X0028085D01*
X0025115Y001186D02*
Y001334D01*
X0028085Y001186D02*
Y001334D01*
X002954Y0004515D02*
Y0007485D01*
X002806Y0004515D02*
Y0007485D01*
Y0004515D02*
X002954D01*
X002806Y0007485D02*
X002954D01*
Y0008015D02*
Y0010985D01*
X002806Y0008015D02*
Y0010985D01*
Y0008015D02*
X002954D01*
X002806Y0010985D02*
X002954D01*
X0025015Y000346D02*
X0027985D01*
X0025015Y000494D02*
X0027985D01*
X0025015Y000346D02*
Y000494D01*
X0027985Y000346D02*
Y000494D01*
X0021515Y000346D02*
X0024485D01*
X0021515Y000494D02*
X0024485D01*
X0021515Y000346D02*
Y000494D01*
X0024485Y000346D02*
Y000494D01*
X00211Y001245D02*
Y001895D01*
X00143D02*
X00211D01*
X00143Y001245D02*
Y001895D01*
Y001245D02*
X00211D01*
X0007547Y0002549D02*
Y0012251D01*
X0014253D01*
Y0002549D02*
Y0012251D01*
X0007547Y0002549D02*
X0014253D01*
X0037Y0014025D02*
Y0014975D01*
X0036525Y00145D02*
X0037475D01*
X00358Y00151D02*
X00382D01*
X00358Y00139D02*
X00382D01*
X00358D02*
Y00151D01*
X00382Y00139D02*
Y00151D01*
X0037Y0012425D02*
Y0013375D01*
X0036525Y00129D02*
X0037475D01*
X00358Y00135D02*
X00382D01*
X00358Y00123D02*
X00382D01*
X00358D02*
Y00135D01*
X00382Y00123D02*
Y00135D01*
X005585Y000235D02*
Y000375D01*
X0054325D02*
X005585D01*
X00527Y0005375D02*
X0054325Y000375D01*
X00527Y0005375D02*
Y001255D01*
X005585D01*
Y001395D01*
X005835D01*
Y001255D02*
Y001395D01*
Y001255D02*
X00615D01*
Y0005375D02*
Y001255D01*
X0059875Y000375D02*
X00615Y0005375D01*
X005835Y000375D02*
X0059875D01*
X005835Y000235D02*
Y000375D01*
X005585Y000235D02*
X005835D01*
X00331Y0012425D02*
Y0013375D01*
X0032625Y00129D02*
X0033575D01*
X00319Y00135D02*
X00343D01*
X00319Y00123D02*
X00343D01*
X00319D02*
Y00135D01*
X00343Y00123D02*
Y00135D01*
X0066725Y001D02*
X0067675D01*
X00672Y0009525D02*
Y0010475D01*
X00666Y00088D02*
Y00112D01*
X00678Y00088D02*
Y00112D01*
X00666Y00088D02*
X00678D01*
X00666Y00112D02*
X00678D01*
X0021925Y00071D02*
X0022875D01*
X00224Y0006625D02*
Y0007575D01*
X0023Y00059D02*
Y00083D01*
X00218Y00059D02*
Y00083D01*
X0023D01*
X00218Y00059D02*
X0023D01*
X00251Y0009825D02*
Y0010775D01*
X0024625Y00103D02*
X0025575D01*
X00239Y00097D02*
X00263D01*
X00239Y00109D02*
X00263D01*
Y00097D02*
Y00109D01*
X00239Y00097D02*
Y00109D01*
X0021Y0009825D02*
Y0010775D01*
X0020525Y00103D02*
X0021475D01*
X00198Y00097D02*
X00222D01*
X00198Y00109D02*
X00222D01*
Y00097D02*
Y00109D01*
X00198Y00097D02*
Y00109D01*
X00247Y0017625D02*
Y0018575D01*
X0024225Y00181D02*
X0025175D01*
X00235Y00175D02*
X00259D01*
X00235Y00187D02*
X00259D01*
Y00175D02*
Y00187D01*
X00235Y00175D02*
Y00187D01*
X00637Y0010225D02*
Y0011175D01*
X0063225Y00107D02*
X0064175D01*
X00625Y00101D02*
X00649D01*
X00625Y00113D02*
X00649D01*
Y00101D02*
Y00113D01*
X00625Y00101D02*
Y00113D01*
M02*
