G04*
G04 #@! TF.GenerationSoftware,Altium Limited,Altium Designer,23.1.1 (15)*
G04*
G04 Layer_Color=16711935*
%FSTAX43Y43*%
%MOMM*%
G71*
G04*
G04 #@! TF.SameCoordinates,20754564-5895-47B1-9861-3486508C147A*
G04*
G04*
G04 #@! TF.FilePolarity,Positive*
G04*
G01*
G75*
%ADD11C,0.254*%
D11*
X0Y0085D02*
X0014Y0099D01*
X0001Y0054D02*
X00075D01*
X008Y0002D02*
Y0019D01*
X0071491Y0021D02*
X00715Y0053D01*
X0Y0055D02*
Y0085D01*
Y00021D02*
Y0019D01*
Y0055D02*
X0001Y0054D01*
X0Y0019D02*
X0001Y002D01*
X00075D01*
X00075Y002D02*
X00085Y0021D01*
X00075Y0054D02*
X00085Y0053D01*
X00085Y002D02*
X00085Y002D01*
X00085Y0053D02*
X0008509Y0021D01*
X008Y0055D02*
Y0085D01*
X00725Y0054D02*
X0079D01*
X00725Y002D02*
X0079D01*
Y0054D02*
X008Y0055D01*
X0079Y002D02*
X008Y0019D01*
X00715Y0021D02*
X00725Y002D01*
X00715Y0053D02*
X00725Y0054D01*
X0066Y0099D02*
X008Y0085D01*
X0078Y0D02*
X008Y0002D01*
X0Y00021D02*
X00021Y0D01*
X0014Y0099D02*
X0066D01*
X00021Y0D02*
X0078D01*
M02*
