M48
;Layer_Color=9474304
;FILE_FORMAT=4:3
METRIC,LZ
;TYPE=PLATED
T1F00S00C0.300
T2F00S00C0.800
T3F00S00C0.914
T4F00S00C1.000
T5F00S00C1.100
T6F00S00C2.000
%
T01
X00196Y00046
X00222Y00042
X00273Y00042
X00258Y00064
X00243Y00103
X00217
X00203Y00103
X00324Y00108
X00338Y00129
X00377Y0013354
X0037Y00109
X00357Y00041
X00337
X00496Y00046
X00493Y00085
X00471Y00096
X00464Y001055
X00493Y0013481
X00521Y00096
X0057Y00117
X00546Y00046
X00642Y00052
X006975Y000465
X007235Y000465
X007365Y000465
X00749Y00047
X007625Y000465
Y001195
X007235
X00717Y00136
X00734Y00137
X00737Y00149
X00748Y00155
X0069
X00696Y00143
X0067696Y00236
X00672Y00249
X00684Y00255
X00646Y00246
X00638Y00228
X00646Y00209
X00628Y00198
X00571Y00196
X00557Y00197
X00546Y00246
X00596
X00595Y00298
X00621Y00296
X00596Y00346
X00546
X00571Y00396
X00621
X00546Y00446
X00671Y00496
X00664Y00226
X00456Y00298
X00383Y00295
X00371Y00296
X00321
X00271
X0028254Y002501
X00291Y00165
X0029047Y0014723
X00274Y00147
X00246Y00146
X0024Y00196
X00171Y00196
X00196Y00346
X00246
X00296
X00346
X00396
X00421Y00396
X00471
X00521
X00496Y00346
X00371Y00396
X00271
X00221
X00246Y00446
X00234Y00478
X00196
X00196Y00446
X0026Y00491
X0037Y00497
X00417Y00506
X00396Y00146
X00376Y00146
X00346Y00146
X00096
X00129Y00251
X00121Y00396
Y00496
Y00596
X0006203Y007163
X00046Y00746
X00071Y00796
X000923Y0080097
X0009103Y008213
X00107Y00823
X00096Y00846
X00121Y00896
X00146Y00846
X00246
X0026834Y0087834
X0028Y00889
X00321Y00896
X00371
X00421
X00471
X00533Y00899
X00521Y00796
X00531Y00752
X00496Y00746
X00477Y00718
X00457
X004575Y00756
X00446Y00746
X00467Y00776
X0044537Y00807
X00446Y00846
X00406Y00831
X00361Y00811
X00346Y00846
X00321Y00796
X003245Y00756
X00311Y00744
X002864Y007446
X00268Y00768
X0026896Y0078296
X00246Y00746
X00214Y00746
X00196Y00746
X00181Y00714
X00196Y00646
X00221Y00596
X00171
X00305Y00603
X00331Y00599
X00371Y00596
X00346Y00646
X00343Y00718
X00324
X00358Y00743
X00413Y00718
X00474Y00629
X00488Y00607
X00506Y00604
X00455
X0025466Y0091366
X0054366Y0088734
X0055869Y0092531
X00671Y00896
X00696Y00846
X006757Y0082297
X00713Y00819
X007113Y0080303
X00746Y00846
X00646
X00621Y00796
X006437Y0074797
X00587Y00738
X00546Y00746
X00671Y00696
X00688Y00671
X0070475
X00721Y00671
X00721Y00696
X00721Y00644
X0070475Y00644
X00688Y00644
Y00619
X0070475
X00721Y00619
Y00594
X0070475Y00594
X00688
X00757Y00606
T02
X0057Y00421
X0070116Y0042084
T03
X00168Y000456
Y0007125
Y0009615
X0012752Y0072391
X001253Y0074921
X001Y00747
X0010221Y007217
X0031696Y0081804
X0033492Y00836
X00299Y00836
X0031696Y0085396
X0046608Y00835
X0048404Y0085296
X00502Y00835
X0048404Y0081704
X006747Y0074921
X0067248Y0072391
X0069779Y007217
X007Y00747
T04
X004568Y0007249
X005614Y00224
X005868
X006122
X006166Y00532
X00642
X005912
X005658
X005404
X00515
X004896
X004642
X004388
X004134
X00388
X003626
X003372
X003118
X002864
X00261
X002356
X002102
X001848
X001594
X002856Y00446
X00311
X003364
X003618
X003872
X004126
X00438
X004634
X004888
X005142
X005106Y00224
X00536
X004852
X004568Y0014869
X003138Y00223
X002884
X00263
X002376
X002122
X001868
X001848Y00684
X002102
X002356
X00261
X002864
X003118
X003372
X003626
X00388
X004134
X004388
X004642
X004896
X00515
X001594
X005404
X005658
X005912
X006166
X00642
T05
X00046Y000436
Y00069
Y000944
X000426Y00157
X00068
X00057Y005886
Y00614
Y006394
Y006648
T06
X00675Y002811
Y004589
X00125
Y002811
X0005Y00775
X004Y00862
X0075Y00775
M30
