G04*
G04 #@! TF.GenerationSoftware,Altium Limited,Altium Designer,23.1.1 (15)*
G04*
G04 Layer_Color=255*
%FSTAX43Y43*%
%MOMM*%
G71*
G04*
G04 #@! TF.SameCoordinates,20754564-5895-47B1-9861-3486508C147A*
G04*
G04*
G04 #@! TF.FilePolarity,Positive*
G04*
G01*
G75*
G04:AMPARAMS|DCode=19|XSize=0.76mm|YSize=0.66mm|CornerRadius=0.083mm|HoleSize=0mm|Usage=FLASHONLY|Rotation=180.000|XOffset=0mm|YOffset=0mm|HoleType=Round|Shape=RoundedRectangle|*
%AMROUNDEDRECTD19*
21,1,0.760,0.495,0,0,180.0*
21,1,0.595,0.660,0,0,180.0*
1,1,0.165,-0.297,0.248*
1,1,0.165,0.297,0.248*
1,1,0.165,0.297,-0.248*
1,1,0.165,-0.297,-0.248*
%
%ADD19ROUNDEDRECTD19*%
%ADD23R,0.870X0.980*%
%ADD30R,0.980X0.870*%
%ADD68R,1.200X2.500*%
%ADD69O,1.200X2.500*%
G04:AMPARAMS|DCode=70|XSize=1.524mm|YSize=2.184mm|CornerRadius=0mm|HoleSize=0mm|Usage=FLASHONLY|Rotation=355.000|XOffset=0mm|YOffset=0mm|HoleType=Round|Shape=Round|*
%AMOVALD70*
21,1,0.660,1.524,0.000,0.000,85.0*
1,1,1.524,-0.029,-0.329*
1,1,1.524,0.029,0.329*
%
%ADD70OVALD70*%

G04:AMPARAMS|DCode=71|XSize=1.524mm|YSize=2.184mm|CornerRadius=0mm|HoleSize=0mm|Usage=FLASHONLY|Rotation=315.000|XOffset=0mm|YOffset=0mm|HoleType=Round|Shape=Round|*
%AMOVALD71*
21,1,0.660,1.524,0.000,0.000,45.0*
1,1,1.524,-0.233,-0.233*
1,1,1.524,0.233,0.233*
%
%ADD71OVALD71*%

G04:AMPARAMS|DCode=72|XSize=1.524mm|YSize=2.184mm|CornerRadius=0mm|HoleSize=0mm|Usage=FLASHONLY|Rotation=45.000|XOffset=0mm|YOffset=0mm|HoleType=Round|Shape=Round|*
%AMOVALD72*
21,1,0.660,1.524,0.000,0.000,135.0*
1,1,1.524,0.233,-0.233*
1,1,1.524,-0.233,0.233*
%
%ADD72OVALD72*%

G04:AMPARAMS|DCode=73|XSize=1.524mm|YSize=2.184mm|CornerRadius=0mm|HoleSize=0mm|Usage=FLASHONLY|Rotation=5.000|XOffset=0mm|YOffset=0mm|HoleType=Round|Shape=Round|*
%AMOVALD73*
21,1,0.660,1.524,0.000,0.000,95.0*
1,1,1.524,0.029,-0.329*
1,1,1.524,-0.029,0.329*
%
%ADD73OVALD73*%

%ADD74R,2.500X1.500*%
%ADD75O,2.500X1.500*%
%ADD76R,2.500X1.200*%
%ADD77O,2.500X1.200*%
%ADD78O,1.905X1.651*%
G04:AMPARAMS|DCode=82|XSize=0.87mm|YSize=0.98mm|CornerRadius=0mm|HoleSize=0mm|Usage=FLASHONLY|Rotation=265.000|XOffset=0mm|YOffset=0mm|HoleType=Round|Shape=Rectangle|*
%AMROTATEDRECTD82*
4,1,4,-0.450,0.476,0.526,0.391,0.450,-0.476,-0.526,-0.391,-0.450,0.476,0.0*
%
%ADD82ROTATEDRECTD82*%

G04:AMPARAMS|DCode=83|XSize=0.87mm|YSize=0.98mm|CornerRadius=0mm|HoleSize=0mm|Usage=FLASHONLY|Rotation=315.000|XOffset=0mm|YOffset=0mm|HoleType=Round|Shape=Rectangle|*
%AMROTATEDRECTD83*
4,1,4,-0.654,-0.039,0.039,0.654,0.654,0.039,-0.039,-0.654,-0.654,-0.039,0.0*
%
%ADD83ROTATEDRECTD83*%

G04:AMPARAMS|DCode=84|XSize=0.87mm|YSize=0.98mm|CornerRadius=0mm|HoleSize=0mm|Usage=FLASHONLY|Rotation=225.000|XOffset=0mm|YOffset=0mm|HoleType=Round|Shape=Rectangle|*
%AMROTATEDRECTD84*
4,1,4,-0.039,0.654,0.654,-0.039,0.039,-0.654,-0.654,0.039,-0.039,0.654,0.0*
%
%ADD84ROTATEDRECTD84*%

G04:AMPARAMS|DCode=85|XSize=0.87mm|YSize=0.98mm|CornerRadius=0mm|HoleSize=0mm|Usage=FLASHONLY|Rotation=185.000|XOffset=0mm|YOffset=0mm|HoleType=Round|Shape=Rectangle|*
%AMROTATEDRECTD85*
4,1,4,0.391,0.526,0.476,-0.450,-0.391,-0.526,-0.476,0.450,0.391,0.526,0.0*
%
%ADD85ROTATEDRECTD85*%

G04:AMPARAMS|DCode=86|XSize=0.87mm|YSize=0.98mm|CornerRadius=0mm|HoleSize=0mm|Usage=FLASHONLY|Rotation=95.000|XOffset=0mm|YOffset=0mm|HoleType=Round|Shape=Rectangle|*
%AMROTATEDRECTD86*
4,1,4,0.526,-0.391,-0.450,-0.476,-0.526,0.391,0.450,0.476,0.526,-0.391,0.0*
%
%ADD86ROTATEDRECTD86*%

G04:AMPARAMS|DCode=87|XSize=1.32mm|YSize=0.6mm|CornerRadius=0.075mm|HoleSize=0mm|Usage=FLASHONLY|Rotation=90.000|XOffset=0mm|YOffset=0mm|HoleType=Round|Shape=RoundedRectangle|*
%AMROUNDEDRECTD87*
21,1,1.320,0.450,0,0,90.0*
21,1,1.170,0.600,0,0,90.0*
1,1,0.150,0.225,0.585*
1,1,0.150,0.225,-0.585*
1,1,0.150,-0.225,-0.585*
1,1,0.150,-0.225,0.585*
%
%ADD87ROUNDEDRECTD87*%
G04:AMPARAMS|DCode=88|XSize=1.32mm|YSize=0.6mm|CornerRadius=0.075mm|HoleSize=0mm|Usage=FLASHONLY|Rotation=180.000|XOffset=0mm|YOffset=0mm|HoleType=Round|Shape=RoundedRectangle|*
%AMROUNDEDRECTD88*
21,1,1.320,0.450,0,0,180.0*
21,1,1.170,0.600,0,0,180.0*
1,1,0.150,-0.585,0.225*
1,1,0.150,0.585,0.225*
1,1,0.150,0.585,-0.225*
1,1,0.150,-0.585,-0.225*
%
%ADD88ROUNDEDRECTD88*%
%ADD89R,0.970X0.730*%
G04:AMPARAMS|DCode=90|XSize=0.76mm|YSize=0.66mm|CornerRadius=0.083mm|HoleSize=0mm|Usage=FLASHONLY|Rotation=355.000|XOffset=0mm|YOffset=0mm|HoleType=Round|Shape=RoundedRectangle|*
%AMROUNDEDRECTD90*
21,1,0.760,0.495,0,0,355.0*
21,1,0.595,0.660,0,0,355.0*
1,1,0.165,0.275,-0.273*
1,1,0.165,-0.318,-0.221*
1,1,0.165,-0.275,0.273*
1,1,0.165,0.318,0.221*
%
%ADD90ROUNDEDRECTD90*%
G04:AMPARAMS|DCode=91|XSize=0.76mm|YSize=0.66mm|CornerRadius=0.083mm|HoleSize=0mm|Usage=FLASHONLY|Rotation=45.000|XOffset=0mm|YOffset=0mm|HoleType=Round|Shape=RoundedRectangle|*
%AMROUNDEDRECTD91*
21,1,0.760,0.495,0,0,45.0*
21,1,0.595,0.660,0,0,45.0*
1,1,0.165,0.385,0.035*
1,1,0.165,-0.035,-0.385*
1,1,0.165,-0.385,-0.035*
1,1,0.165,0.035,0.385*
%
%ADD91ROUNDEDRECTD91*%
G04:AMPARAMS|DCode=92|XSize=0.76mm|YSize=0.66mm|CornerRadius=0.083mm|HoleSize=0mm|Usage=FLASHONLY|Rotation=315.000|XOffset=0mm|YOffset=0mm|HoleType=Round|Shape=RoundedRectangle|*
%AMROUNDEDRECTD92*
21,1,0.760,0.495,0,0,315.0*
21,1,0.595,0.660,0,0,315.0*
1,1,0.165,0.035,-0.385*
1,1,0.165,-0.385,0.035*
1,1,0.165,-0.035,0.385*
1,1,0.165,0.385,-0.035*
%
%ADD92ROUNDEDRECTD92*%
G04:AMPARAMS|DCode=93|XSize=0.76mm|YSize=0.66mm|CornerRadius=0.083mm|HoleSize=0mm|Usage=FLASHONLY|Rotation=5.000|XOffset=0mm|YOffset=0mm|HoleType=Round|Shape=RoundedRectangle|*
%AMROUNDEDRECTD93*
21,1,0.760,0.495,0,0,5.0*
21,1,0.595,0.660,0,0,5.0*
1,1,0.165,0.318,-0.221*
1,1,0.165,-0.275,-0.273*
1,1,0.165,-0.318,0.221*
1,1,0.165,0.275,0.273*
%
%ADD93ROUNDEDRECTD93*%
D19*
X00757Y00592D02*
D03*
Y00606D02*
D03*
D23*
X00704Y00594D02*
D03*
X00688D02*
D03*
Y00671D02*
D03*
X00704D02*
D03*
X00688Y00644D02*
D03*
X00704D02*
D03*
X00688Y00619D02*
D03*
X00704D02*
D03*
D30*
X00457Y00734D02*
D03*
Y00718D02*
D03*
X00324Y00734D02*
D03*
Y00718D02*
D03*
X00493Y00085D02*
D03*
Y00101D02*
D03*
X00477Y00718D02*
D03*
Y00734D02*
D03*
X00343Y00718D02*
D03*
Y00734D02*
D03*
X00493Y00119D02*
D03*
Y00135D02*
D03*
X00419Y0013D02*
D03*
Y00114D02*
D03*
X00445Y00823D02*
D03*
Y00807D02*
D03*
X00291Y00807D02*
D03*
Y00791D02*
D03*
D68*
X00642Y00532D02*
D03*
X001594Y00684D02*
D03*
X005142Y00446D02*
D03*
X005106Y00224D02*
D03*
X000426Y00157D02*
D03*
X002884Y00223D02*
D03*
D69*
X006166Y00532D02*
D03*
X005912D02*
D03*
X005658D02*
D03*
X005404D02*
D03*
X00515D02*
D03*
X004896D02*
D03*
X004642D02*
D03*
X004388D02*
D03*
X004134D02*
D03*
X00388D02*
D03*
X003626D02*
D03*
X003372D02*
D03*
X003118D02*
D03*
X002864D02*
D03*
X00261D02*
D03*
X002356D02*
D03*
X002102D02*
D03*
X001848D02*
D03*
X001594D02*
D03*
X00642Y00684D02*
D03*
X006166D02*
D03*
X005912D02*
D03*
X005658D02*
D03*
X005404D02*
D03*
X00515D02*
D03*
X004896D02*
D03*
X004642D02*
D03*
X004388D02*
D03*
X004134D02*
D03*
X00388D02*
D03*
X003626D02*
D03*
X003372D02*
D03*
X003118D02*
D03*
X002864D02*
D03*
X00261D02*
D03*
X002356D02*
D03*
X002102D02*
D03*
X001848D02*
D03*
X004888Y00446D02*
D03*
X004634D02*
D03*
X00438D02*
D03*
X004126D02*
D03*
X003872D02*
D03*
X003618D02*
D03*
X003364D02*
D03*
X00311D02*
D03*
X002856D02*
D03*
X006122Y00224D02*
D03*
X005868D02*
D03*
X005614D02*
D03*
X00536D02*
D03*
X004852D02*
D03*
X00068Y00157D02*
D03*
X003138Y00223D02*
D03*
X00263D02*
D03*
X002376D02*
D03*
X002122D02*
D03*
X001868D02*
D03*
D70*
X0067248Y0072391D02*
D03*
X0069779Y007217D02*
D03*
X006747Y0074921D02*
D03*
X007Y00747D02*
D03*
D71*
X0046608Y00835D02*
D03*
X0048404Y0081704D02*
D03*
Y0085296D02*
D03*
X00502Y00835D02*
D03*
D72*
X0031696Y0081804D02*
D03*
X0033492Y00836D02*
D03*
X00299Y00836D02*
D03*
X0031696Y0085396D02*
D03*
D73*
X0010221Y007217D02*
D03*
X0012752Y0072391D02*
D03*
X001Y00747D02*
D03*
X001253Y0074921D02*
D03*
D74*
X004568Y0014869D02*
D03*
D75*
Y0007249D02*
D03*
D76*
X00046Y000944D02*
D03*
Y00069D02*
D03*
X00057Y005886D02*
D03*
D77*
X00046Y000436D02*
D03*
X00057Y006648D02*
D03*
Y006394D02*
D03*
Y00614D02*
D03*
D78*
X00168Y000456D02*
D03*
Y0007125D02*
D03*
Y0009615D02*
D03*
D82*
X007113Y0080303D02*
D03*
X007127Y0081897D02*
D03*
X006757Y0082297D02*
D03*
X006743Y0080703D02*
D03*
X006423Y0073203D02*
D03*
X006437Y0074797D02*
D03*
D83*
X0054366Y0088734D02*
D03*
X0053234Y0089866D02*
D03*
X0055869Y0092531D02*
D03*
X0057Y00914D02*
D03*
D84*
X0026834Y0087834D02*
D03*
X0027966Y0088966D02*
D03*
X0025466Y0091366D02*
D03*
X0024334Y0090234D02*
D03*
D85*
X0009103Y008213D02*
D03*
X0010697Y008227D02*
D03*
X0007797Y007177D02*
D03*
X0006203Y007163D02*
D03*
D86*
X000923Y0080097D02*
D03*
X000937Y0078503D02*
D03*
D87*
X00467Y00776D02*
D03*
X004575Y00756D02*
D03*
X004765D02*
D03*
X00334Y00776D02*
D03*
X003245Y00756D02*
D03*
X003435D02*
D03*
D88*
X00464Y001245D02*
D03*
Y001055D02*
D03*
X00444Y00115D02*
D03*
D89*
X00435Y00043D02*
D03*
X004006D02*
D03*
D90*
X0069339Y0080603D02*
D03*
X0069461Y0081997D02*
D03*
D91*
X0055595Y0090105D02*
D03*
X0054605Y0091095D02*
D03*
D92*
X0025605Y0089205D02*
D03*
X0026595Y0090195D02*
D03*
D93*
X0011039Y0079897D02*
D03*
X0011161Y0078503D02*
D03*
M02*
