G04*
G04 #@! TF.GenerationSoftware,Altium Limited,Altium Designer,23.1.1 (15)*
G04*
G04 Layer_Color=8388736*
%FSTAX43Y43*%
%MOMM*%
G71*
G04*
G04 #@! TF.SameCoordinates,20754564-5895-47B1-9861-3486508C147A*
G04*
G04*
G04 #@! TF.FilePolarity,Negative*
G04*
G01*
G75*
G04:AMPARAMS|DCode=33|XSize=0.963mm|YSize=0.864mm|CornerRadius=0.184mm|HoleSize=0mm|Usage=FLASHONLY|Rotation=180.000|XOffset=0mm|YOffset=0mm|HoleType=Round|Shape=RoundedRectangle|*
%AMROUNDEDRECTD33*
21,1,0.963,0.495,0,0,180.0*
21,1,0.595,0.864,0,0,180.0*
1,1,0.368,-0.297,0.248*
1,1,0.368,0.297,0.248*
1,1,0.368,0.297,-0.248*
1,1,0.368,-0.297,-0.248*
%
%ADD33ROUNDEDRECTD33*%
%ADD34R,2.204X4.204*%
%ADD35R,1.003X1.003*%
%ADD36R,2.203X1.003*%
%ADD37R,1.074X1.184*%
%ADD38R,0.603X1.453*%
G04:AMPARAMS|DCode=39|XSize=0.963mm|YSize=0.864mm|CornerRadius=0.184mm|HoleSize=0mm|Usage=FLASHONLY|Rotation=270.000|XOffset=0mm|YOffset=0mm|HoleType=Round|Shape=RoundedRectangle|*
%AMROUNDEDRECTD39*
21,1,0.963,0.495,0,0,270.0*
21,1,0.595,0.864,0,0,270.0*
1,1,0.368,-0.248,-0.297*
1,1,0.368,-0.248,0.297*
1,1,0.368,0.248,0.297*
1,1,0.368,0.248,-0.297*
%
%ADD39ROUNDEDRECTD39*%
%ADD40R,2.903X1.803*%
G04:AMPARAMS|DCode=41|XSize=1.513mm|YSize=3.443mm|CornerRadius=0.2mm|HoleSize=0mm|Usage=FLASHONLY|Rotation=270.000|XOffset=0mm|YOffset=0mm|HoleType=Round|Shape=RoundedRectangle|*
%AMROUNDEDRECTD41*
21,1,1.513,3.044,0,0,270.0*
21,1,1.114,3.443,0,0,270.0*
1,1,0.400,-1.522,-0.557*
1,1,0.400,-1.522,0.557*
1,1,0.400,1.522,0.557*
1,1,0.400,1.522,-0.557*
%
%ADD41ROUNDEDRECTD41*%
G04:AMPARAMS|DCode=42|XSize=1.513mm|YSize=1.133mm|CornerRadius=0.171mm|HoleSize=0mm|Usage=FLASHONLY|Rotation=270.000|XOffset=0mm|YOffset=0mm|HoleType=Round|Shape=RoundedRectangle|*
%AMROUNDEDRECTD42*
21,1,1.513,0.791,0,0,270.0*
21,1,1.171,1.133,0,0,270.0*
1,1,0.343,-0.395,-0.585*
1,1,0.343,-0.395,0.585*
1,1,0.343,0.395,0.585*
1,1,0.343,0.395,-0.585*
%
%ADD42ROUNDEDRECTD42*%
%ADD43R,0.803X1.203*%
%ADD44R,1.184X1.074*%
%ADD45R,1.803X5.903*%
%ADD46R,3.354X2.504*%
%ADD47R,1.403X2.703*%
%ADD48O,1.403X2.703*%
G04:AMPARAMS|DCode=49|XSize=1.727mm|YSize=2.388mm|CornerRadius=0mm|HoleSize=0mm|Usage=FLASHONLY|Rotation=355.000|XOffset=0mm|YOffset=0mm|HoleType=Round|Shape=Round|*
%AMOVALD49*
21,1,0.660,1.727,0.000,0.000,85.0*
1,1,1.727,-0.029,-0.329*
1,1,1.727,0.029,0.329*
%
%ADD49OVALD49*%

G04:AMPARAMS|DCode=50|XSize=1.727mm|YSize=2.388mm|CornerRadius=0mm|HoleSize=0mm|Usage=FLASHONLY|Rotation=315.000|XOffset=0mm|YOffset=0mm|HoleType=Round|Shape=Round|*
%AMOVALD50*
21,1,0.660,1.727,0.000,0.000,45.0*
1,1,1.727,-0.233,-0.233*
1,1,1.727,0.233,0.233*
%
%ADD50OVALD50*%

G04:AMPARAMS|DCode=51|XSize=1.727mm|YSize=2.388mm|CornerRadius=0mm|HoleSize=0mm|Usage=FLASHONLY|Rotation=45.000|XOffset=0mm|YOffset=0mm|HoleType=Round|Shape=Round|*
%AMOVALD51*
21,1,0.660,1.727,0.000,0.000,135.0*
1,1,1.727,0.233,-0.233*
1,1,1.727,-0.233,0.233*
%
%ADD51OVALD51*%

G04:AMPARAMS|DCode=52|XSize=1.727mm|YSize=2.388mm|CornerRadius=0mm|HoleSize=0mm|Usage=FLASHONLY|Rotation=5.000|XOffset=0mm|YOffset=0mm|HoleType=Round|Shape=Round|*
%AMOVALD52*
21,1,0.660,1.727,0.000,0.000,95.0*
1,1,1.727,0.029,-0.329*
1,1,1.727,-0.029,0.329*
%
%ADD52OVALD52*%

%ADD53R,2.703X1.703*%
%ADD54O,2.703X1.703*%
%ADD55R,2.703X1.403*%
%ADD56O,2.703X1.403*%
%ADD57O,2.108X1.854*%
%ADD58C,0.803*%
%ADD59C,2.703*%
%ADD60C,1.203*%
D33*
X00268Y00782D02*
D03*
Y00768D02*
D03*
X005311Y0076663D02*
D03*
Y0075263D02*
D03*
X00673Y00051D02*
D03*
Y00065D02*
D03*
X00672Y00093D02*
D03*
Y00107D02*
D03*
X00224Y00078D02*
D03*
Y00064D02*
D03*
D34*
X00214Y007465D02*
D03*
Y008175D02*
D03*
X00588Y008095D02*
D03*
Y007385D02*
D03*
X00571Y00046D02*
D03*
Y00117D02*
D03*
D35*
X0070475Y00594D02*
D03*
X0072125D02*
D03*
X0070475Y00671D02*
D03*
X0072125D02*
D03*
X0070475Y00644D02*
D03*
X0072125D02*
D03*
X0070475Y00619D02*
D03*
X0072125D02*
D03*
X0029075Y00165D02*
D03*
X0030725D02*
D03*
D36*
X00757Y00607D02*
D03*
Y00649D02*
D03*
D37*
X00329Y00165D02*
D03*
X00345D02*
D03*
X00274Y00147D02*
D03*
X0029D02*
D03*
X00258Y00126D02*
D03*
X00274D02*
D03*
X00257Y00042D02*
D03*
X00273D02*
D03*
X00222D02*
D03*
X00238D02*
D03*
D38*
X0069425Y0004675D02*
D03*
X0070075D02*
D03*
X0070725D02*
D03*
X0071375D02*
D03*
X0072025D02*
D03*
X0072675D02*
D03*
X0073325D02*
D03*
X0073975D02*
D03*
X0074625D02*
D03*
X0075275D02*
D03*
X0075925D02*
D03*
X0076575D02*
D03*
X0075275Y0011925D02*
D03*
X0074625D02*
D03*
X0073975D02*
D03*
X0073325D02*
D03*
X0072675D02*
D03*
X0072025D02*
D03*
X0071375D02*
D03*
X0070725D02*
D03*
X0070075D02*
D03*
X0069425D02*
D03*
X0075925D02*
D03*
X0076575D02*
D03*
D39*
X00181Y00714D02*
D03*
X00167D02*
D03*
X00611Y00497D02*
D03*
X00597D02*
D03*
X00557Y00197D02*
D03*
X00543D02*
D03*
X00507Y00477D02*
D03*
X00493D02*
D03*
X00557Y00182D02*
D03*
X00543D02*
D03*
X0024Y00196D02*
D03*
X00254D02*
D03*
X00363Y00145D02*
D03*
X00377D02*
D03*
X00363Y00129D02*
D03*
X00377D02*
D03*
X00324D02*
D03*
X00338D02*
D03*
X00258Y00103D02*
D03*
X00244D02*
D03*
X00217D02*
D03*
X00203D02*
D03*
X00254Y00181D02*
D03*
X0024D02*
D03*
X00644Y00107D02*
D03*
X0063D02*
D03*
D40*
X00643Y00082D02*
D03*
Y00052D02*
D03*
D41*
X003469Y000411D02*
D03*
D42*
X00324Y00108D02*
D03*
X003469D02*
D03*
X003698D02*
D03*
D43*
X002485Y000875D02*
D03*
X00258D02*
D03*
X002675D02*
D03*
Y000645D02*
D03*
X00258D02*
D03*
X002485D02*
D03*
D44*
X00288Y00052D02*
D03*
Y00068D02*
D03*
Y00087D02*
D03*
Y00103D02*
D03*
D45*
X001535Y00157D02*
D03*
X002005D02*
D03*
D46*
X00109Y000395D02*
D03*
Y001085D02*
D03*
D47*
X00642Y00532D02*
D03*
X001594Y00684D02*
D03*
X005142Y00446D02*
D03*
X005106Y00224D02*
D03*
X000426Y00157D02*
D03*
X002884Y00223D02*
D03*
D48*
X006166Y00532D02*
D03*
X005912D02*
D03*
X005658D02*
D03*
X005404D02*
D03*
X00515D02*
D03*
X004896D02*
D03*
X004642D02*
D03*
X004388D02*
D03*
X004134D02*
D03*
X00388D02*
D03*
X003626D02*
D03*
X003372D02*
D03*
X003118D02*
D03*
X002864D02*
D03*
X00261D02*
D03*
X002356D02*
D03*
X002102D02*
D03*
X001848D02*
D03*
X001594D02*
D03*
X00642Y00684D02*
D03*
X006166D02*
D03*
X005912D02*
D03*
X005658D02*
D03*
X005404D02*
D03*
X00515D02*
D03*
X004896D02*
D03*
X004642D02*
D03*
X004388D02*
D03*
X004134D02*
D03*
X00388D02*
D03*
X003626D02*
D03*
X003372D02*
D03*
X003118D02*
D03*
X002864D02*
D03*
X00261D02*
D03*
X002356D02*
D03*
X002102D02*
D03*
X001848D02*
D03*
X004888Y00446D02*
D03*
X004634D02*
D03*
X00438D02*
D03*
X004126D02*
D03*
X003872D02*
D03*
X003618D02*
D03*
X003364D02*
D03*
X00311D02*
D03*
X002856D02*
D03*
X006122Y00224D02*
D03*
X005868D02*
D03*
X005614D02*
D03*
X00536D02*
D03*
X004852D02*
D03*
X00068Y00157D02*
D03*
X003138Y00223D02*
D03*
X00263D02*
D03*
X002376D02*
D03*
X002122D02*
D03*
X001868D02*
D03*
D49*
X0067248Y0072391D02*
D03*
X0069779Y007217D02*
D03*
X006747Y0074921D02*
D03*
X007Y00747D02*
D03*
D50*
X0046608Y00835D02*
D03*
X0048404Y0081704D02*
D03*
Y0085296D02*
D03*
X00502Y00835D02*
D03*
D51*
X0031696Y0081804D02*
D03*
X0033492Y00836D02*
D03*
X00299Y00836D02*
D03*
X0031696Y0085396D02*
D03*
D52*
X0010221Y007217D02*
D03*
X0012752Y0072391D02*
D03*
X001Y00747D02*
D03*
X001253Y0074921D02*
D03*
D53*
X004568Y0014869D02*
D03*
D54*
Y0007249D02*
D03*
D55*
X00046Y000944D02*
D03*
Y00069D02*
D03*
X00057Y005886D02*
D03*
D56*
X00046Y000436D02*
D03*
X00057Y006648D02*
D03*
Y006394D02*
D03*
Y00614D02*
D03*
D57*
X00168Y000456D02*
D03*
Y0007125D02*
D03*
Y0009615D02*
D03*
D58*
X00746Y00846D02*
D03*
X00696D02*
D03*
X00721Y00696D02*
D03*
X00671Y00896D02*
D03*
X00646Y00846D02*
D03*
X00671Y00696D02*
D03*
Y00496D02*
D03*
X00646Y00246D02*
D03*
X00621Y00796D02*
D03*
Y00396D02*
D03*
X00596Y00346D02*
D03*
X00621Y00296D02*
D03*
X00596Y00246D02*
D03*
X00546Y00746D02*
D03*
Y00446D02*
D03*
X00571Y00396D02*
D03*
X00546Y00346D02*
D03*
Y00246D02*
D03*
X00571Y00196D02*
D03*
X00546Y00046D02*
D03*
X00521Y00796D02*
D03*
X00496Y00746D02*
D03*
X00521Y00396D02*
D03*
X00496Y00346D02*
D03*
X00521Y00096D02*
D03*
X00496Y00046D02*
D03*
X00471Y00896D02*
D03*
X00446Y00846D02*
D03*
Y00746D02*
D03*
X00471Y00396D02*
D03*
Y00096D02*
D03*
X00421Y00896D02*
D03*
Y00396D02*
D03*
X00396Y00346D02*
D03*
Y00146D02*
D03*
X00371Y00896D02*
D03*
X00346Y00846D02*
D03*
Y00646D02*
D03*
X00371Y00596D02*
D03*
Y00396D02*
D03*
X00346Y00346D02*
D03*
X00371Y00296D02*
D03*
X00346Y00146D02*
D03*
X00321Y00896D02*
D03*
Y00796D02*
D03*
X00296Y00346D02*
D03*
X00321Y00296D02*
D03*
X00246Y00846D02*
D03*
Y00746D02*
D03*
Y00446D02*
D03*
X00271Y00396D02*
D03*
X00246Y00346D02*
D03*
X00271Y00296D02*
D03*
X00246Y00146D02*
D03*
X00196Y00746D02*
D03*
Y00646D02*
D03*
X00221Y00596D02*
D03*
X00196Y00446D02*
D03*
X00221Y00396D02*
D03*
X00196Y00346D02*
D03*
Y00046D02*
D03*
X00146Y00846D02*
D03*
X00171Y00596D02*
D03*
Y00196D02*
D03*
X00121Y00896D02*
D03*
X00096Y00846D02*
D03*
X00121Y00596D02*
D03*
Y00496D02*
D03*
Y00396D02*
D03*
X00096Y00146D02*
D03*
X00071Y00796D02*
D03*
X00046Y00746D02*
D03*
X007625Y000465D02*
D03*
X00406Y00831D02*
D03*
X00696Y00143D02*
D03*
X0069Y00155D02*
D03*
X00717Y00136D02*
D03*
X00737Y00149D02*
D03*
X00748Y00155D02*
D03*
X00734Y00137D02*
D03*
X00664Y00226D02*
D03*
X00638Y00228D02*
D03*
X00646Y00209D02*
D03*
X00628Y00198D02*
D03*
X0067696Y00236D02*
D03*
X00684Y00255D02*
D03*
X00672Y00249D02*
D03*
X00258Y00064D02*
D03*
X0026834Y0087834D02*
D03*
X00557Y00197D02*
D03*
X007235Y000465D02*
D03*
X0024Y00196D02*
D03*
X00291Y00165D02*
D03*
X00338Y00129D02*
D03*
X0037Y00109D02*
D03*
X00377Y0013354D02*
D03*
X00493Y0013481D02*
D03*
X0029047Y0014723D02*
D03*
X00376Y00146D02*
D03*
X00217Y00103D02*
D03*
X00222Y00042D02*
D03*
X00243Y00103D02*
D03*
X00464Y001055D02*
D03*
X00493Y00085D02*
D03*
X0057Y00117D02*
D03*
X00642Y00052D02*
D03*
X00749Y00047D02*
D03*
X00721Y00671D02*
D03*
Y00644D02*
D03*
Y00619D02*
D03*
Y00594D02*
D03*
X00268Y00768D02*
D03*
X00214Y00746D02*
D03*
X002864Y007446D02*
D03*
X00311Y00744D02*
D03*
X003245Y00756D02*
D03*
X00324Y00718D02*
D03*
X00457D02*
D03*
X004575Y00756D02*
D03*
X00531Y00752D02*
D03*
X00587Y00738D02*
D03*
X006757Y0082297D02*
D03*
X007113Y0080303D02*
D03*
X0054366Y0088734D02*
D03*
X0055869Y0092531D02*
D03*
X0009103Y008213D02*
D03*
X0025466Y0091366D02*
D03*
X000923Y0080097D02*
D03*
X00181Y00714D02*
D03*
X006437Y0074797D02*
D03*
X0026896Y0078296D02*
D03*
X0026Y00491D02*
D03*
X00417Y00506D02*
D03*
X0037Y00497D02*
D03*
X00234Y00478D02*
D03*
X00196D02*
D03*
X00456Y00298D02*
D03*
X00383Y00295D02*
D03*
X00595Y00298D02*
D03*
X00474Y00629D02*
D03*
X00488Y00607D02*
D03*
X00455Y00604D02*
D03*
X00506D02*
D03*
X00358Y00743D02*
D03*
X00413Y00718D02*
D03*
X00477D02*
D03*
X00688Y00594D02*
D03*
X00343Y00718D02*
D03*
X00305Y00603D02*
D03*
X00331Y00599D02*
D03*
X0028254Y002501D02*
D03*
X00274Y00147D02*
D03*
X00129Y00251D02*
D03*
X0070475Y00594D02*
D03*
X00688Y00619D02*
D03*
Y00644D02*
D03*
Y00671D02*
D03*
X00361Y00811D02*
D03*
X0044537Y00807D02*
D03*
X00107Y00823D02*
D03*
X00713Y00819D02*
D03*
X00533Y00899D02*
D03*
X0028Y00889D02*
D03*
X00467Y00776D02*
D03*
X0070475Y00671D02*
D03*
Y00644D02*
D03*
Y00619D02*
D03*
X00757Y00606D02*
D03*
X007625Y001195D02*
D03*
X007235D02*
D03*
X007365Y000465D02*
D03*
X006975D02*
D03*
X0006203Y007163D02*
D03*
X00337Y00041D02*
D03*
X00203Y00103D02*
D03*
X00357Y00041D02*
D03*
X00273Y00042D02*
D03*
X00324Y00108D02*
D03*
D59*
X0005Y00775D02*
D03*
X0075D02*
D03*
X004Y00862D02*
D03*
X00125Y002811D02*
D03*
Y004589D02*
D03*
X00675D02*
D03*
Y002811D02*
D03*
D60*
X0057Y00421D02*
D03*
X0070116Y0042084D02*
D03*
M02*
