G04*
G04 #@! TF.GenerationSoftware,Altium Limited,Altium Designer,23.1.1 (15)*
G04*
G04 Layer_Color=0*
%FSTAX43Y43*%
%MOMM*%
G71*
G04*
G04 #@! TF.SameCoordinates,20754564-5895-47B1-9861-3486508C147A*
G04*
G04*
G04 #@! TF.FilePolarity,Positive*
G04*
G01*
G75*
%ADD106C,0.050*%
D106*
X0071085Y005866D02*
Y006014D01*
X0068115Y005866D02*
Y006014D01*
Y005866D02*
X0071085D01*
X0068115Y006014D02*
X0071085D01*
X0070333Y0079685D02*
X0071808Y0079556D01*
X0070592Y0082644D02*
X0072067Y0082515D01*
X0070333Y0079685D02*
X0070592Y0082644D01*
X0071808Y0079556D02*
X0072067Y0082515D01*
X0054327Y0087727D02*
X0055373Y0088773D01*
X0052227Y0089827D02*
X0053273Y0090873D01*
X0052227Y0089827D02*
X0054327Y0087727D01*
X0053273Y0090873D02*
X0055373Y0088773D01*
X0025827Y0087873D02*
X0026873Y0086827D01*
X0027927Y0089973D02*
X0028973Y0088927D01*
X0025827Y0087873D02*
X0027927Y0089973D01*
X0026873Y0086827D02*
X0028973Y0088927D01*
X0066892Y0083044D02*
X0068367Y0082915D01*
X0066633Y0080085D02*
X0068108Y0079956D01*
X0068367Y0082915D01*
X0066633Y0080085D02*
X0066892Y0083044D01*
X0054861Y0092492D02*
X0055908Y0093539D01*
X0056961Y0090392D02*
X0058008Y0091439D01*
X0055908Y0093539D02*
X0058008Y0091439D01*
X0054861Y0092492D02*
X0056961Y0090392D01*
X0025427Y0092373D02*
X0026473Y0091327D01*
X0023327Y0090273D02*
X0024373Y0089227D01*
X0026473Y0091327D01*
X0023327Y0090273D02*
X0025427Y0092373D01*
X004496Y0074085D02*
X004644D01*
X004496Y0071115D02*
X004644D01*
Y0074085D01*
X004496Y0071115D02*
Y0074085D01*
X003166Y0074085D02*
X003314D01*
X003166Y0071115D02*
X003314D01*
Y0074085D01*
X003166Y0071115D02*
Y0074085D01*
X004856Y0007815D02*
Y0010785D01*
X005004Y0007815D02*
Y0010785D01*
X004856Y0007815D02*
X005004D01*
X004856Y0010785D02*
X005004D01*
X004696Y0071115D02*
X004844D01*
X004696Y0074085D02*
X004844D01*
X004696Y0071115D02*
Y0074085D01*
X004844Y0071115D02*
Y0074085D01*
X003356Y0071115D02*
X003504D01*
X003356Y0074085D02*
X003504D01*
X003356Y0071115D02*
Y0074085D01*
X003504Y0071115D02*
Y0074085D01*
X004856Y0011215D02*
Y0014185D01*
X005004Y0011215D02*
Y0014185D01*
X004856Y0011215D02*
X005004D01*
X004856Y0014185D02*
X005004D01*
X004264Y0010715D02*
Y0013685D01*
X004116Y0010715D02*
Y0013685D01*
X004264D01*
X004116Y0010715D02*
X004264D01*
X0008356Y0082808D02*
X0008485Y0081333D01*
X0011315Y0083067D02*
X0011444Y0081592D01*
X0008356Y0082808D02*
X0011315Y0083067D01*
X0008485Y0081333D02*
X0011444Y0081592D01*
X0008433Y0080715D02*
X0009908Y0080844D01*
X0008692Y0077756D02*
X0010167Y0077885D01*
X0009908Y0080844D02*
X0010167Y0077885D01*
X0008433Y0080715D02*
X0008692Y0077756D01*
X0063433Y0072585D02*
X0064908Y0072456D01*
X0063692Y0075544D02*
X0065167Y0075415D01*
X0063433Y0072585D02*
X0063692Y0075544D01*
X0064908Y0072456D02*
X0065167Y0075415D01*
X004376Y0082985D02*
X004524D01*
X004376Y0080015D02*
X004524D01*
Y0082985D01*
X004376Y0080015D02*
X004376Y0082985D01*
X002836Y0081385D02*
X002984D01*
X002836Y0078415D02*
X002984D01*
Y0081385D01*
X002836Y0078415D02*
X002836Y0081385D01*
X0008415Y0072567D02*
X0008544Y0071092D01*
X0005456Y0072308D02*
X0005585Y0070833D01*
X0008544Y0071092D01*
X0005456Y0072308D02*
X0008415Y0072567D01*
X0068115Y006784D02*
X0071085D01*
X0068115Y006636D02*
X0071085D01*
X0068115D02*
Y006784D01*
X0071085Y006636D02*
Y006784D01*
X0068115Y006514D02*
X0071085D01*
X0068115Y006366D02*
X0071085D01*
X0068115D02*
Y006514D01*
X0071085Y006366D02*
Y006514D01*
X0068115Y006264D02*
X0071085D01*
X0068115Y006116D02*
X0071085D01*
X0068115D02*
Y006264D01*
X0071085Y006116D02*
Y006264D01*
X00484Y007469D02*
Y007851D01*
X0045D02*
X00484D01*
X0045Y007469D02*
Y007851D01*
Y007469D02*
X00484D01*
X00351D02*
Y007851D01*
X00317D02*
X00351D01*
X00317Y007469D02*
Y007851D01*
Y007469D02*
X00351D01*
X004731Y00098D02*
Y00132D01*
X004349Y00098D02*
X004731D01*
X004349D02*
Y00132D01*
X004731D01*
X0039325Y000325D02*
X0044235D01*
Y000535D01*
X0039325D02*
X0044235D01*
X0039325Y000325D02*
Y000535D01*
X0068698Y0080157D02*
X0069893Y0080052D01*
X0068907Y0082548D02*
X0070102Y0082443D01*
X0069893Y0080052D02*
X0070102Y0082443D01*
X0068698Y0080157D02*
X0068907Y0082548D01*
X0069359Y0080827D02*
X0069441Y0081773D01*
X0068927Y0081341D02*
X0069873Y0081259D01*
X0055524Y0089327D02*
X0056373Y0090176D01*
X0053827Y0091024D02*
X0054676Y0091873D01*
X0056373Y0090176D01*
X0053827Y0091024D02*
X0055524Y0089327D01*
X0054764Y0090936D02*
X0055436Y0090264D01*
X0054764D02*
X0055436Y0090936D01*
X0024827Y0089276D02*
X0025676Y0088427D01*
X0026524Y0090973D02*
X0027373Y0090124D01*
X0025676Y0088427D02*
X0027373Y0090124D01*
X0024827Y0089276D02*
X0026524Y0090973D01*
X0025764Y0089364D02*
X0026436Y0090036D01*
X0025764Y0090036D02*
X0026436Y0089364D01*
X0010627Y0079159D02*
X0011573Y0079241D01*
X0011059Y0079673D02*
X0011141Y0078727D01*
X0010398Y0080343D02*
X0010607Y0077952D01*
X0011593Y0080448D02*
X0011802Y0078057D01*
X0010398Y0080343D02*
X0011593Y0080448D01*
X0010607Y0077952D02*
X0011802Y0078057D01*
X0075225Y00599D02*
X0076175D01*
X00757Y0059425D02*
Y0060375D01*
X00763Y00587D02*
Y00611D01*
X00751Y00587D02*
Y00611D01*
Y00587D02*
X00763D01*
X00751Y00611D02*
X00763D01*
M02*
